<?xml version="1.0" encoding="UTF-8" standalone="no"?>
<!DOCTYPE svg PUBLIC "-//W3C//DTD SVG 1.1//EN"
 "http://www.w3.org/Graphics/SVG/1.1/DTD/svg11.dtd">
<!-- Generated by graphviz version 2.38.0 (20140413.2041)
 -->
<!-- Title: G Pages: 1 -->
<svg width="94pt" height="103pt"
 viewBox="0.00 0.00 94.00 103.46" xmlns="http://www.w3.org/2000/svg" xmlns:xlink="http://www.w3.org/1999/xlink">
<g id="graph0" class="graph" transform="scale(1 1) rotate(0) translate(4 99.4558)">
<title>G</title>
<polygon fill="white" stroke="none" points="-4,4 -4,-99.4558 90,-99.4558 90,4 -4,4"/>
<!-- httpdbpediaorgresourceNarendra_Modi -->
<g id="node1" class="node"><title>httpdbpediaorgresourceNarendra_Modi</title>
<g id="a_node1"><a xlink:href="../describe?uri=http://dbpedia.org/resource/Narendra_Modi&amp;p=http://www.w3.org/1999/02/22-rdf-syntax-ns%23type" xlink:title="Narendra Modi" target="_top">
<path fill="green" stroke="gray" stroke-width="0.5" d="M77.6667,-95.4558C77.6667,-95.4558 8.33333,-95.4558 8.33333,-95.4558 4.16667,-95.4558 0,-91.2892 0,-87.1225 0,-87.1225 0,-78.7892 0,-78.7892 0,-74.6225 4.16667,-70.4558 8.33333,-70.4558 8.33333,-70.4558 77.6667,-70.4558 77.6667,-70.4558 81.8333,-70.4558 86,-74.6225 86,-78.7892 86,-78.7892 86,-87.1225 86,-87.1225 86,-91.2892 81.8333,-95.4558 77.6667,-95.4558"/>
<text text-anchor="middle" x="43" y="-80.7558" font-family="Verdana" font-size="9.00" fill="white">Narendra Modi</text>
</a>
</g>
</g>
<!-- httpdbpediaorgontologyPerson -->
<g id="httpdbpediaorgontologyPerson" class="node"><title>httpdbpediaorgontologyPerson</title>
<g id="a_httpdbpediaorgontologyPerson"><a xlink:href="../describe?uri=http://dbpedia.org/ontology/Person&amp;p=http://www.w3.org/1999/02/22-rdf-syntax-ns%23type" xlink:title="Person" target="_top">
<ellipse fill="white" stroke="gray" stroke-width="0.5" cx="43" cy="-12.7279" rx="35.2113" ry="12.96"/>
<text text-anchor="middle" x="43" y="-10.5279" font-family="Verdana" font-size="9.00" fill="green">Person</text>
</a>
</g>
</g>
<!-- httpdbpediaorgresourceNarendra_Modi&#45;&gt;httpdbpediaorgontologyPerson -->
<g id="edge1" class="edge"><title>httpdbpediaorgresourceNarendra_Modi&#45;&gt;httpdbpediaorgontologyPerson</title>
<g id="a_edge1"><a xlink:href="../select/navmapedgeremove?index=0" xlink:title="is a" target="_top">
<path fill="none" stroke="black" stroke-width="0.2" d="M43,-70.3819C43,-59.4705 43,-42.9904 43,-30.6131"/>
<polygon fill="gray" stroke="black" stroke-width="0.2" points="43,-25.588 45.2501,-30.5879 43,-28.088 43.0001,-30.588 43.0001,-30.588 43.0001,-30.588 43,-28.088 40.7501,-30.588 43,-25.588 43,-25.588"/>
</a>
</g>
<g id="a_edge1&#45;label"><a xlink:href="../select/navmapedgeremove?index=0" xlink:title="is a" target="_top">
<text text-anchor="middle" x="51" y="-46.0558" font-family="Verdana" font-size="8.00" fill="brown">is a</text>
</a>
</g>
</g>
</g>
</svg>
