<?xml version="1.0" encoding="UTF-8" standalone="no"?>
<!DOCTYPE svg PUBLIC "-//W3C//DTD SVG 1.1//EN"
 "http://www.w3.org/Graphics/SVG/1.1/DTD/svg11.dtd">
<!-- Generated by graphviz version 2.38.0 (20140413.2041)
 -->
<!-- Title: G Pages: 1 -->
<svg width="217pt" height="33pt"
 viewBox="0.00 0.00 216.71 33.46" xmlns="http://www.w3.org/2000/svg" xmlns:xlink="http://www.w3.org/1999/xlink">
<g id="graph0" class="graph" transform="scale(1 1) rotate(0) translate(4 29.4558)">
<title>G</title>
<polygon fill="white" stroke="none" points="-4,4 -4,-29.4558 212.711,-29.4558 212.711,4 -4,4"/>
<!-- httpdbpediaorgresourceNarendra_Modi -->
<g id="node1" class="node"><title>httpdbpediaorgresourceNarendra_Modi</title>
<g id="a_node1"><a xlink:href="../describe?uri=http://dbpedia.org/resource/Narendra_Modi&amp;p=http://www.w3.org/1999/02/22-rdf-syntax-ns%23type" xlink:title="Narendra Modi" target="_top">
<path fill="green" stroke="gray" stroke-width="0.5" d="M77.6667,-25.2279C77.6667,-25.2279 8.33333,-25.2279 8.33333,-25.2279 4.16667,-25.2279 0,-21.0613 0,-16.8946 0,-16.8946 0,-8.56126 0,-8.56126 0,-4.39459 4.16667,-0.227922 8.33333,-0.227922 8.33333,-0.227922 77.6667,-0.227922 77.6667,-0.227922 81.8333,-0.227922 86,-4.39459 86,-8.56126 86,-8.56126 86,-16.8946 86,-16.8946 86,-21.0613 81.8333,-25.2279 77.6667,-25.2279"/>
<text text-anchor="middle" x="43" y="-10.5279" font-family="Verdana" font-size="9.00" fill="white">Narendra Modi</text>
</a>
</g>
</g>
<!-- httpdbpediaorgontologyPerson -->
<g id="httpdbpediaorgontologyPerson" class="node"><title>httpdbpediaorgontologyPerson</title>
<g id="a_httpdbpediaorgontologyPerson"><a xlink:href="../describe?uri=http://dbpedia.org/ontology/Person&amp;p=http://www.w3.org/1999/02/22-rdf-syntax-ns%23type" xlink:title="Person" target="_top">
<ellipse fill="white" stroke="gray" stroke-width="0.5" cx="173.355" cy="-12.7279" rx="35.2113" ry="12.96"/>
<text text-anchor="middle" x="173.355" y="-10.5279" font-family="Verdana" font-size="9.00" fill="green">Person</text>
</a>
</g>
</g>
<!-- httpdbpediaorgresourceNarendra_Modi&#45;&gt;httpdbpediaorgontologyPerson -->
<g id="edge1" class="edge"><title>httpdbpediaorgresourceNarendra_Modi&#45;&gt;httpdbpediaorgontologyPerson</title>
<g id="a_edge1"><a xlink:href="../select/navmapedgeremove?index=0" xlink:title="is a" target="_top">
<path fill="none" stroke="black" stroke-width="0.2" d="M86.0283,-12.7279C101.005,-12.7279 117.816,-12.7279 132.596,-12.7279"/>
<polygon fill="gray" stroke="black" stroke-width="0.2" points="137.943,-12.7279 132.943,-14.978 135.443,-12.728 132.943,-12.728 132.943,-12.728 132.943,-12.728 135.443,-12.728 132.943,-10.478 137.943,-12.7279 137.943,-12.7279"/>
</a>
</g>
<g id="a_edge1&#45;label"><a xlink:href="../select/navmapedgeremove?index=0" xlink:title="is a" target="_top">
<text text-anchor="middle" x="112" y="-15.3279" font-family="Verdana" font-size="8.00" fill="brown">is a</text>
</a>
</g>
</g>
</g>
</svg>
