<?xml version="1.0" encoding="UTF-8" standalone="no"?>
<!DOCTYPE svg PUBLIC "-//W3C//DTD SVG 1.1//EN"
 "http://www.w3.org/Graphics/SVG/1.1/DTD/svg11.dtd">
<!-- Generated by graphviz version 2.38.0 (20140413.2041)
 -->
<!-- Title: G Pages: 1 -->
<svg width="193pt" height="33pt"
 viewBox="0.00 0.00 192.71 33.46" xmlns="http://www.w3.org/2000/svg" xmlns:xlink="http://www.w3.org/1999/xlink">
<g id="graph0" class="graph" transform="scale(1 1) rotate(0) translate(4 29.4558)">
<title>G</title>
<polygon fill="white" stroke="none" points="-4,4 -4,-29.4558 188.711,-29.4558 188.711,4 -4,4"/>
<!-- a_Personhttpdbpediaorgresource -->
<g id="node1" class="node"><title>a_Personhttpdbpediaorgresource</title>
<g id="a_node1"><a xlink:href="../describe?uri=http://dbpedia.org/resource/Narendra_Modi&amp;p=http://www.w3.org/1999/02/22-rdf-syntax-ns%23type" xlink:title="a Person" target="_top">
<path fill="green" stroke="gray" stroke-width="0.5" d="M50.6667,-25.2279C50.6667,-25.2279 8.33333,-25.2279 8.33333,-25.2279 4.16667,-25.2279 0,-21.0613 0,-16.8946 0,-16.8946 0,-8.56126 0,-8.56126 0,-4.39459 4.16667,-0.227922 8.33333,-0.227922 8.33333,-0.227922 50.6667,-0.227922 50.6667,-0.227922 54.8333,-0.227922 59,-4.39459 59,-8.56126 59,-8.56126 59,-16.8946 59,-16.8946 59,-21.0613 54.8333,-25.2279 50.6667,-25.2279"/>
<text text-anchor="middle" x="29.5" y="-10.5279" font-family="Verdana" font-size="9.00" fill="white">a Person</text>
</a>
</g>
</g>
<!-- httpdbpediaorgontologyPerson -->
<g id="httpdbpediaorgontologyPerson" class="node"><title>httpdbpediaorgontologyPerson</title>
<g id="a_httpdbpediaorgontologyPerson"><a xlink:href="../describe?uri=http://dbpedia.org/ontology/Person&amp;p=http://www.w3.org/1999/02/22-rdf-syntax-ns%23type" xlink:title="Person" target="_top">
<ellipse fill="white" stroke="gray" stroke-width="0.5" cx="149.355" cy="-12.7279" rx="35.2113" ry="12.96"/>
<text text-anchor="middle" x="149.355" y="-10.5279" font-family="Verdana" font-size="9.00" fill="green">Person</text>
</a>
</g>
</g>
<!-- a_Personhttpdbpediaorgresource&#45;&gt;httpdbpediaorgontologyPerson -->
<g id="edge1" class="edge"><title>a_Personhttpdbpediaorgresource&#45;&gt;httpdbpediaorgontologyPerson</title>
<g id="a_edge1"><a xlink:href="../select/navmapedgeremove?index=0" xlink:title="type" target="_top">
<path fill="none" stroke="black" stroke-width="0.2" d="M59.0295,-12.7279C73.8412,-12.7279 92.1813,-12.7279 108.382,-12.7279"/>
<polygon fill="gray" stroke="black" stroke-width="0.2" points="113.786,-12.7279 108.786,-14.978 111.286,-12.728 108.786,-12.728 108.786,-12.728 108.786,-12.728 111.286,-12.728 108.786,-10.478 113.786,-12.7279 113.786,-12.7279"/>
</a>
</g>
<g id="a_edge1&#45;label"><a xlink:href="../select/navmapedgeremove?index=0" xlink:title="type" target="_top">
<text text-anchor="middle" x="86.5" y="-15.3279" font-family="Verdana" font-size="8.00" fill="brown">type</text>
</a>
</g>
</g>
</g>
</svg>
