<?xml version="1.0" encoding="UTF-8" standalone="no"?>
<!DOCTYPE svg PUBLIC "-//W3C//DTD SVG 1.1//EN"
 "http://www.w3.org/Graphics/SVG/1.1/DTD/svg11.dtd">
<!-- Generated by graphviz version 2.38.0 (20140413.2041)
 -->
<!-- Title: G Pages: 1 -->
<svg width="79pt" height="103pt"
 viewBox="0.00 0.00 78.71 103.46" xmlns="http://www.w3.org/2000/svg" xmlns:xlink="http://www.w3.org/1999/xlink">
<g id="graph0" class="graph" transform="scale(1 1) rotate(0) translate(4 99.4558)">
<title>G</title>
<polygon fill="white" stroke="none" points="-4,4 -4,-99.4558 74.7107,-99.4558 74.7107,4 -4,4"/>
<!-- a_Personhttpdbpediaorgresource -->
<g id="node1" class="node"><title>a_Personhttpdbpediaorgresource</title>
<g id="a_node1"><a xlink:href="../describe?uri=http://dbpedia.org/resource/Narendra_Modi&amp;p=http://www.w3.org/1999/02/22-rdf-syntax-ns%23type" xlink:title="a Person" target="_top">
<path fill="green" stroke="gray" stroke-width="0.5" d="M56.522,-95.4558C56.522,-95.4558 14.1887,-95.4558 14.1887,-95.4558 10.022,-95.4558 5.85534,-91.2892 5.85534,-87.1225 5.85534,-87.1225 5.85534,-78.7892 5.85534,-78.7892 5.85534,-74.6225 10.022,-70.4558 14.1887,-70.4558 14.1887,-70.4558 56.522,-70.4558 56.522,-70.4558 60.6887,-70.4558 64.8553,-74.6225 64.8553,-78.7892 64.8553,-78.7892 64.8553,-87.1225 64.8553,-87.1225 64.8553,-91.2892 60.6887,-95.4558 56.522,-95.4558"/>
<text text-anchor="middle" x="35.3553" y="-80.7558" font-family="Verdana" font-size="9.00" fill="white">a Person</text>
</a>
</g>
</g>
<!-- httpdbpediaorgontologyPerson -->
<g id="httpdbpediaorgontologyPerson" class="node"><title>httpdbpediaorgontologyPerson</title>
<g id="a_httpdbpediaorgontologyPerson"><a xlink:href="../describe?uri=http://dbpedia.org/ontology/Person&amp;p=http://www.w3.org/1999/02/22-rdf-syntax-ns%23type" xlink:title="Person" target="_top">
<ellipse fill="white" stroke="gray" stroke-width="0.5" cx="35.3553" cy="-12.7279" rx="35.2113" ry="12.96"/>
<text text-anchor="middle" x="35.3553" y="-10.5279" font-family="Verdana" font-size="9.00" fill="green">Person</text>
</a>
</g>
</g>
<!-- a_Personhttpdbpediaorgresource&#45;&gt;httpdbpediaorgontologyPerson -->
<g id="edge1" class="edge"><title>a_Personhttpdbpediaorgresource&#45;&gt;httpdbpediaorgontologyPerson</title>
<g id="a_edge1"><a xlink:href="../select/navmapedgeremove?index=0" xlink:title="type" target="_top">
<path fill="none" stroke="black" stroke-width="0.2" d="M35.3553,-70.3819C35.3553,-59.4705 35.3553,-42.9904 35.3553,-30.6131"/>
<polygon fill="gray" stroke="black" stroke-width="0.2" points="35.3553,-25.588 37.6054,-30.5879 35.3554,-28.088 35.3554,-30.588 35.3554,-30.588 35.3554,-30.588 35.3554,-28.088 33.1054,-30.588 35.3553,-25.588 35.3553,-25.588"/>
</a>
</g>
<g id="a_edge1&#45;label"><a xlink:href="../select/navmapedgeremove?index=0" xlink:title="type" target="_top">
<text text-anchor="middle" x="44.8553" y="-46.0558" font-family="Verdana" font-size="8.00" fill="brown">type</text>
</a>
</g>
</g>
</g>
</svg>
