<?xml version="1.0" encoding="UTF-8" standalone="no"?>
<!DOCTYPE svg PUBLIC "-//W3C//DTD SVG 1.1//EN"
 "http://www.w3.org/Graphics/SVG/1.1/DTD/svg11.dtd">
<!-- Generated by graphviz version 2.38.0 (20140413.2041)
 -->
<!-- Title: G Pages: 1 -->
<svg width="229pt" height="173pt"
 viewBox="0.00 0.00 229.00 173.23" xmlns="http://www.w3.org/2000/svg" xmlns:xlink="http://www.w3.org/1999/xlink">
<g id="graph0" class="graph" transform="scale(1 1) rotate(0) translate(4 169.228)">
<title>G</title>
<polygon fill="white" stroke="none" points="-4,4 -4,-169.228 225,-169.228 225,4 -4,4"/>
<!-- a_Personhttpdbpediaorgresource -->
<g id="node1" class="node"><title>a_Personhttpdbpediaorgresource</title>
<g id="a_node1"><a xlink:href="../describe?uri=http://dbpedia.org/resource/Narendra_Modi&amp;p=http://dbpedia.org/property/birthName&amp;navmapid=1_1" xlink:title="a Person" target="_top">
<path fill="white" stroke="gray" stroke-width="0.5" d="M50.6667,-91C50.6667,-91 8.33333,-91 8.33333,-91 4.16667,-91 0,-86.8333 0,-82.6667 0,-82.6667 0,-74.3333 0,-74.3333 0,-70.1667 4.16667,-66 8.33333,-66 8.33333,-66 50.6667,-66 50.6667,-66 54.8333,-66 59,-70.1667 59,-74.3333 59,-74.3333 59,-82.6667 59,-82.6667 59,-86.8333 54.8333,-91 50.6667,-91"/>
<text text-anchor="middle" x="29.5" y="-76.3" font-family="Verdana" font-size="9.00" fill="green">a Person</text>
</a>
</g>
</g>
<!-- httpdbpediaorgontologyPerson -->
<g id="httpdbpediaorgontologyPerson" class="node"><title>httpdbpediaorgontologyPerson</title>
<g id="a_httpdbpediaorgontologyPerson"><a xlink:href="../describe?uri=http://dbpedia.org/ontology/Person&amp;p=http://www.w3.org/1999/02/22-rdf-syntax-ns%23type&amp;navmapid=1_1" xlink:title="Person" target="_top">
<ellipse fill="white" stroke="gray" stroke-width="0.5" cx="182" cy="-152.5" rx="35.2113" ry="12.96"/>
<text text-anchor="middle" x="182" y="-150.3" font-family="Verdana" font-size="9.00" fill="green">Person</text>
</a>
</g>
</g>
<!-- a_Personhttpdbpediaorgresource&#45;&gt;httpdbpediaorgontologyPerson -->
<g id="edge1" class="edge"><title>a_Personhttpdbpediaorgresource&#45;&gt;httpdbpediaorgontologyPerson</title>
<g id="a_edge1"><a xlink:href="../select/navmapedgeremove?index=0" xlink:title="type" target="_top">
<path fill="none" stroke="black" stroke-width="0.2" d="M44.3569,-91.071C53.2085,-98.6174 65.2028,-107.985 77,-114.5 99.5891,-126.975 127.084,-136.815 148.129,-143.354"/>
<polygon fill="gray" stroke="black" stroke-width="0.2" points="153.06,-144.863 147.621,-145.551 150.67,-144.131 148.279,-143.4 148.279,-143.4 148.279,-143.4 150.67,-144.131 148.937,-141.248 153.06,-144.863 153.06,-144.863"/>
</a>
</g>
<g id="a_edge1&#45;label"><a xlink:href="../select/navmapedgeremove?index=0" xlink:title="type" target="_top">
<text text-anchor="middle" x="101" y="-137.1" font-family="Verdana" font-size="8.00" fill="brown">type</text>
</a>
</g>
</g>
<!-- untyped_string_httpxmlnscomfoaf01name -->
<g id="untyped_string_httpxmlnscomfoaf01name1" class="node"><title>untyped_string_httpxmlnscomfoaf01name</title>
<g id="a_untyped_string_httpxmlnscomfoaf01name1"><a xlink:href="../describe?uri=http://xmlns.com/foaf/0.1/name&amp;s=http://dbpedia.org/resource/Narendra_Modi&amp;p=http://xmlns.com/foaf/0.1/name&amp;navmapid=1_1" xlink:title="untyped string" target="_top">
<path fill="#754719" stroke="gray" d="M215.333,-122C215.333,-122 148.667,-122 148.667,-122 145.833,-122 143,-119.167 143,-116.333 143,-116.333 143,-110.667 143,-110.667 143,-107.833 145.833,-105 148.667,-105 148.667,-105 215.333,-105 215.333,-105 218.167,-105 221,-107.833 221,-110.667 221,-110.667 221,-116.333 221,-116.333 221,-119.167 218.167,-122 215.333,-122"/>
<text text-anchor="middle" x="182" y="-111.6" font-family="Verdana" font-size="8.00" fill="white">untyped string</text>
</a>
</g>
</g>
<!-- a_Personhttpdbpediaorgresource&#45;&gt;untyped_string_httpxmlnscomfoaf01name -->
<g id="edge2" class="edge"><title>a_Personhttpdbpediaorgresource&#45;&gt;untyped_string_httpxmlnscomfoaf01name</title>
<g id="a_edge2"><a xlink:href="../select/navmapedgeremove?index=1" xlink:title="name" target="_top">
<path fill="none" stroke="black" stroke-width="0.2" d="M59.4461,-86.9019C65.2422,-88.4968 71.3012,-90.1022 77,-91.5 96.824,-96.3626 118.931,-101.13 137.648,-104.977"/>
<polygon fill="gray" stroke="black" stroke-width="0.2" points="142.832,-106.037 137.483,-107.24 140.383,-105.536 137.934,-105.035 137.934,-105.035 137.934,-105.035 140.383,-105.536 138.384,-102.831 142.832,-106.037 142.832,-106.037"/>
</a>
</g>
<g id="a_edge2&#45;label"><a xlink:href="../select/navmapedgeremove?index=1" xlink:title="name" target="_top">
<text text-anchor="middle" x="101" y="-104.1" font-family="Verdana" font-size="8.00" fill="brown">name</text>
</a>
</g>
</g>
<!-- integer_httpdbpediaorgontologywikiPageID -->
<g id="integer_httpdbpediaorgontologywikiPageID2" class="node"><title>integer_httpdbpediaorgontologywikiPageID</title>
<g id="a_integer_httpdbpediaorgontologywikiPageID2"><a xlink:href="../describe?uri=http://dbpedia.org/ontology/wikiPageID&amp;s=http://dbpedia.org/resource/Narendra_Modi&amp;p=http://dbpedia.org/ontology/wikiPageID&amp;navmapid=1_1" xlink:title="integer" target="_top">
<path fill="#754719" stroke="gray" d="M203.333,-87C203.333,-87 160.667,-87 160.667,-87 157.833,-87 155,-84.1667 155,-81.3333 155,-81.3333 155,-75.6667 155,-75.6667 155,-72.8333 157.833,-70 160.667,-70 160.667,-70 203.333,-70 203.333,-70 206.167,-70 209,-72.8333 209,-75.6667 209,-75.6667 209,-81.3333 209,-81.3333 209,-84.1667 206.167,-87 203.333,-87"/>
<text text-anchor="middle" x="182" y="-76.6" font-family="Verdana" font-size="8.00" fill="white">integer</text>
</a>
</g>
</g>
<!-- a_Personhttpdbpediaorgresource&#45;&gt;integer_httpdbpediaorgontologywikiPageID -->
<g id="edge3" class="edge"><title>a_Personhttpdbpediaorgresource&#45;&gt;integer_httpdbpediaorgontologywikiPageID</title>
<g id="a_edge3"><a xlink:href="../select/navmapedgeremove?index=2" xlink:title="wikiPageID" target="_top">
<path fill="none" stroke="black" stroke-width="0.2" d="M59.1621,-78.5C85.0676,-78.5 123.118,-78.5 149.785,-78.5"/>
<polygon fill="gray" stroke="black" stroke-width="0.2" points="154.959,-78.5 149.959,-80.7501 152.459,-78.5 149.959,-78.5001 149.959,-78.5001 149.959,-78.5001 152.459,-78.5 149.959,-76.2501 154.959,-78.5 154.959,-78.5"/>
</a>
</g>
<g id="a_edge3&#45;label"><a xlink:href="../select/navmapedgeremove?index=2" xlink:title="wikiPageID" target="_top">
<text text-anchor="middle" x="101" y="-81.1" font-family="Verdana" font-size="8.00" fill="brown">wikiPageID</text>
</a>
</g>
</g>
<!-- untyped_string_httppurlorgdctermsdescription -->
<g id="untyped_string_httppurlorgdctermsdescription3" class="node"><title>untyped_string_httppurlorgdctermsdescription</title>
<g id="a_untyped_string_httppurlorgdctermsdescription3"><a xlink:href="../describe?uri=http://purl.org/dc/terms/description&amp;s=http://dbpedia.org/resource/Narendra_Modi&amp;p=http://purl.org/dc/terms/description&amp;navmapid=1_1" xlink:title="untyped string" target="_top">
<path fill="#754719" stroke="gray" d="M215.333,-52C215.333,-52 148.667,-52 148.667,-52 145.833,-52 143,-49.1667 143,-46.3333 143,-46.3333 143,-40.6667 143,-40.6667 143,-37.8333 145.833,-35 148.667,-35 148.667,-35 215.333,-35 215.333,-35 218.167,-35 221,-37.8333 221,-40.6667 221,-40.6667 221,-46.3333 221,-46.3333 221,-49.1667 218.167,-52 215.333,-52"/>
<text text-anchor="middle" x="182" y="-41.6" font-family="Verdana" font-size="8.00" fill="white">untyped string</text>
</a>
</g>
</g>
<!-- a_Personhttpdbpediaorgresource&#45;&gt;untyped_string_httppurlorgdctermsdescription -->
<g id="edge4" class="edge"><title>a_Personhttpdbpediaorgresource&#45;&gt;untyped_string_httppurlorgdctermsdescription</title>
<g id="a_edge4"><a xlink:href="../select/navmapedgeremove?index=3" xlink:title="description" target="_top">
<path fill="none" stroke="black" stroke-width="0.2" d="M59.4461,-70.0981C65.2422,-68.5032 71.3012,-66.8978 77,-65.5 96.824,-60.6374 118.931,-55.8701 137.648,-52.0232"/>
<polygon fill="gray" stroke="black" stroke-width="0.2" points="142.832,-50.9633 138.384,-54.1693 140.383,-51.4641 137.934,-51.9649 137.934,-51.9649 137.934,-51.9649 140.383,-51.4641 137.483,-49.7605 142.832,-50.9633 142.832,-50.9633"/>
</a>
</g>
<g id="a_edge4&#45;label"><a xlink:href="../select/navmapedgeremove?index=3" xlink:title="description" target="_top">
<text text-anchor="middle" x="101" y="-68.1" font-family="Verdana" font-size="8.00" fill="brown">description</text>
</a>
</g>
</g>
<!-- langString_httpdbpediaorgpropertybirthName -->
<g id="langString_httpdbpediaorgpropertybirthName4" class="node"><title>langString_httpdbpediaorgpropertybirthName</title>
<g id="a_langString_httpdbpediaorgpropertybirthName4"><a xlink:href="../describe?uri=http://dbpedia.org/property/birthName&amp;s=http://dbpedia.org/resource/Narendra_Modi&amp;p=http://dbpedia.org/property/birthName&amp;navmapid=1_1" xlink:title="langString" target="_top">
<path fill="#754719" stroke="gray" d="M206.333,-17C206.333,-17 157.667,-17 157.667,-17 154.833,-17 152,-14.1667 152,-11.3333 152,-11.3333 152,-5.66667 152,-5.66667 152,-2.83333 154.833,-0 157.667,-0 157.667,-0 206.333,-0 206.333,-0 209.167,-0 212,-2.83333 212,-5.66667 212,-5.66667 212,-11.3333 212,-11.3333 212,-14.1667 209.167,-17 206.333,-17"/>
<text text-anchor="middle" x="182" y="-6.6" font-family="Verdana" font-size="8.00" fill="white">langString</text>
</a>
</g>
</g>
<!-- a_Personhttpdbpediaorgresource&#45;&gt;langString_httpdbpediaorgpropertybirthName -->
<g id="edge5" class="edge"><title>a_Personhttpdbpediaorgresource&#45;&gt;langString_httpdbpediaorgpropertybirthName</title>
<g id="a_edge5"><a xlink:href="../select/navmapedgeremove?index=4" xlink:title="birthName" target="_top">
<path fill="none" stroke="black" stroke-width="0.2" d="M43.8043,-65.7301C52.6317,-57.835 64.8002,-48.0023 77,-41.5 98.9758,-29.7873 125.807,-21.4018 146.711,-16.015"/>
<polygon fill="gray" stroke="black" stroke-width="0.2" points="151.619,-14.7771 147.321,-18.1817 149.195,-15.3886 146.771,-16 146.771,-16 146.771,-16 149.195,-15.3886 146.22,-13.8184 151.619,-14.7771 151.619,-14.7771"/>
</a>
</g>
<g id="a_edge5&#45;label"><a xlink:href="../select/navmapedgeremove?index=4" xlink:title="birthName" target="_top">
<text text-anchor="middle" x="101" y="-44.1" font-family="Verdana" font-size="8.00" fill="brown">birthName</text>
</a>
</g>
</g>
</g>
</svg>
