<?xml version="1.0" encoding="UTF-8" standalone="no"?>
<!DOCTYPE svg PUBLIC "-//W3C//DTD SVG 1.1//EN"
 "http://www.w3.org/Graphics/SVG/1.1/DTD/svg11.dtd">
<!-- Generated by graphviz version 2.38.0 (20140413.2041)
 -->
<!-- Title: G Pages: 1 -->
<svg width="646pt" height="290pt"
 viewBox="0.00 0.00 646.00 290.00" xmlns="http://www.w3.org/2000/svg" xmlns:xlink="http://www.w3.org/1999/xlink">
<g id="graph0" class="graph" transform="scale(1 1) rotate(0) translate(4 286)">
<title>G</title>
<polygon fill="white" stroke="none" points="-4,4 -4,-286 642,-286 642,4 -4,4"/>
<g id="clust1" class="cluster"><title>cluster_query_new_query0</title>
<path fill="none" stroke="lightgray" d="M20,-8C20,-8 618,-8 618,-8 624,-8 630,-14 630,-20 630,-20 630,-262 630,-262 630,-268 624,-274 618,-274 618,-274 20,-274 20,-274 14,-274 8,-268 8,-262 8,-262 8,-20 8,-20 8,-14 14,-8 20,-8"/>
</g>
<g id="clust2" class="cluster"><title>cluster_columns_0</title>
<path fill="none" stroke="lightgray" d="M31,-209C31,-209 391,-209 391,-209 397,-209 403,-215 403,-221 403,-221 403,-254 403,-254 403,-260 397,-266 391,-266 391,-266 31,-266 31,-266 25,-266 19,-260 19,-254 19,-254 19,-221 19,-221 19,-215 25,-209 31,-209"/>
<text text-anchor="middle" x="211" y="-254.8" font-family="Helvetica,sans-Serif" font-size="9.00">Columns</text>
</g>
<g id="clust3" class="cluster"><title>cluster_optional_0_5</title>
<path fill="none" stroke="yellow" d="M236,-16C236,-16 536,-16 536,-16 542,-16 548,-22 548,-28 548,-28 548,-168 548,-168 548,-174 542,-180 536,-180 536,-180 236,-180 236,-180 230,-180 224,-174 224,-168 224,-168 224,-28 224,-28 224,-22 230,-16 236,-16"/>
<text text-anchor="middle" x="386" y="-168.8" font-family="Helvetica,sans-Serif" font-size="9.00">OPTIONAL</text>
</g>
<!-- struct_cols_0 -->
<g id="node1" class="node"><title>struct_cols_0</title>
<polygon fill="lightgray" stroke="gray" points="27.5,-217.5 27.5,-239.5 394.5,-239.5 394.5,-217.5 27.5,-217.5"/>
<text text-anchor="middle" x="62.5" y="-226.3" font-family="Verdana" font-size="9.00">_wikiPageID</text>
<polyline fill="none" stroke="gray" points="97.5,-217.5 97.5,-239.5 "/>
<text text-anchor="middle" x="121" y="-226.3" font-family="Verdana" font-size="9.00">_name</text>
<polyline fill="none" stroke="gray" points="144.5,-217.5 144.5,-239.5 "/>
<text text-anchor="middle" x="177" y="-226.3" font-family="Verdana" font-size="9.00">_comment</text>
<polyline fill="none" stroke="gray" points="209.5,-217.5 209.5,-239.5 "/>
<text text-anchor="middle" x="246.5" y="-226.3" font-family="Verdana" font-size="9.00">_description</text>
<polyline fill="none" stroke="gray" points="283.5,-217.5 283.5,-239.5 "/>
<text text-anchor="middle" x="308.5" y="-226.3" font-family="Verdana" font-size="9.00">Person</text>
<polyline fill="none" stroke="gray" points="333.5,-217.5 333.5,-239.5 "/>
<text text-anchor="middle" x="364" y="-226.3" font-family="Verdana" font-size="9.00">_abstract</text>
</g>
<!-- __wikiPageID_0 -->
<g id="node2" class="node"><title>__wikiPageID_0</title>
<ellipse fill="#4c88e8" stroke="gray" cx="277" cy="-42" rx="45.1548" ry="18"/>
<text text-anchor="middle" x="277" y="-39.5" font-family="Verdana" font-size="10.00" fill="white">?_wikiPageID</text>
</g>
<!-- struct_cols_0&#45;&gt;__wikiPageID_0 -->
<g id="edge1" class="edge"><title>struct_cols_0:_wikiPageID_0&#45;&gt;__wikiPageID_0</title>
<path fill="none" stroke="green" stroke-width="0.25" d="M62,-216.5C62,-197.559 77.0196,-197.608 84,-180 92.5455,-158.444 89.072,-93.8469 106,-78 126.006,-59.2714 201.382,-66.5199 228,-60 230.487,-59.3908 233.026,-58.7072 235.575,-57.9732"/>
<polygon fill="green" stroke="green" stroke-width="0.25" points="236.848,-61.2432 245.366,-54.9433 234.778,-54.5561 236.848,-61.2432"/>
<text text-anchor="middle" x="98.5" y="-133.5" font-family="Arial" font-size="10.00">ref</text>
</g>
<!-- __name_0 -->
<g id="node3" class="node"><title>__name_0</title>
<ellipse fill="#4c88e8" stroke="gray" cx="590" cy="-42" rx="32.2534" ry="18"/>
<text text-anchor="middle" x="590" y="-39.5" font-family="Verdana" font-size="10.00" fill="white">?_name</text>
</g>
<!-- struct_cols_0&#45;&gt;__name_0 -->
<g id="edge2" class="edge"><title>struct_cols_0:_name_0&#45;&gt;__name_0</title>
<path fill="none" stroke="green" stroke-width="0.25" d="M121,-216.5C121,-201.705 238.419,-201.505 253,-199 276.281,-195 281.549,-190.838 305,-188 332.26,-184.701 527.908,-193.175 552,-180 589.857,-159.297 594.202,-141.206 607,-100 610.17,-89.793 607.998,-78.5223 604.286,-68.7164"/>
<polygon fill="green" stroke="green" stroke-width="0.25" points="607.45,-67.2184 600.2,-59.4925 601.05,-70.0532 607.45,-67.2184"/>
<text text-anchor="middle" x="606.5" y="-133.5" font-family="Arial" font-size="10.00">ref</text>
</g>
<!-- __comment_0 -->
<g id="node4" class="node"><title>__comment_0</title>
<ellipse fill="#4c88e8" stroke="gray" cx="384" cy="-42" rx="43.6222" ry="18"/>
<text text-anchor="middle" x="384" y="-39.5" font-family="Verdana" font-size="10.00" fill="white">?_comment</text>
</g>
<!-- struct_cols_0&#45;&gt;__comment_0 -->
<g id="edge3" class="edge"><title>struct_cols_0:_comment_0&#45;&gt;__comment_0</title>
<path fill="none" stroke="green" stroke-width="0.25" d="M177,-216.5C177,-196.837 161.89,-196.994 152,-180 132.103,-145.813 121.894,-138.543 113,-100 110.801,-90.4726 106.377,-85.1928 113,-78 129.464,-60.1209 307.163,-64.7424 331,-60 334.835,-59.237 338.783,-58.2903 342.71,-57.2372"/>
<polygon fill="green" stroke="green" stroke-width="0.25" points="343.727,-60.5867 352.36,-54.4441 341.781,-53.8628 343.727,-60.5867"/>
<text text-anchor="middle" x="157.5" y="-133.5" font-family="Arial" font-size="10.00">ref</text>
</g>
<!-- __description_0 -->
<g id="node5" class="node"><title>__description_0</title>
<ellipse fill="#4c88e8" stroke="gray" cx="493" cy="-42" rx="47.1863" ry="18"/>
<text text-anchor="middle" x="493" y="-39.5" font-family="Verdana" font-size="10.00" fill="white">?_description</text>
</g>
<!-- struct_cols_0&#45;&gt;__description_0 -->
<g id="edge4" class="edge"><title>struct_cols_0:_description_0&#45;&gt;__description_0</title>
<path fill="none" stroke="green" stroke-width="0.25" d="M247,-216.5C247,-171.644 257.501,-148.916 225,-118 190.694,-85.3671 150.52,-136.198 120,-100 113.697,-92.5248 113.285,-85.1072 120,-78 144.229,-52.3566 402.264,-66.1676 437,-60 441.108,-59.2706 445.339,-58.3379 449.547,-57.2857"/>
<polygon fill="green" stroke="green" stroke-width="0.25" points="450.523,-60.6477 459.259,-54.6535 448.692,-53.8914 450.523,-60.6477"/>
<text text-anchor="middle" x="254.5" y="-133.5" font-family="Arial" font-size="10.00">ref</text>
</g>
<!-- _Person_0 -->
<g id="node6" class="node"><title>_Person_0</title>
<ellipse fill="#4c88e8" stroke="gray" cx="309" cy="-136" rx="32.2534" ry="18"/>
<text text-anchor="middle" x="309" y="-133.5" font-family="Verdana" font-size="10.00" fill="white">?Person</text>
</g>
<!-- struct_cols_0&#45;&gt;_Person_0 -->
<g id="edge5" class="edge"><title>struct_cols_0:Person_0&#45;&gt;_Person_0</title>
<path fill="none" stroke="green" stroke-width="0.25" d="M309,-216.5C309,-199.174 309,-179.724 309,-164.399"/>
<polygon fill="green" stroke="green" stroke-width="0.25" points="312.5,-164.059 309,-154.059 305.5,-164.059 312.5,-164.059"/>
<text text-anchor="middle" x="314.5" y="-191" font-family="Arial" font-size="10.00">ref</text>
</g>
<!-- __abstract_0 -->
<g id="node7" class="node"><title>__abstract_0</title>
<ellipse fill="#4c88e8" stroke="gray" cx="55" cy="-42" rx="39.3809" ry="18"/>
<text text-anchor="middle" x="55" y="-39.5" font-family="Verdana" font-size="10.00" fill="white">?_abstract</text>
</g>
<!-- struct_cols_0&#45;&gt;__abstract_0 -->
<g id="edge6" class="edge"><title>struct_cols_0:_abstract_0&#45;&gt;__abstract_0</title>
<path fill="none" stroke="green" stroke-width="0.25" d="M364,-216.5C364,-207.653 216.257,-185.06 209,-180 181.902,-161.105 194.871,-137.218 168,-118 142.222,-99.5633 125.435,-117.482 99,-100 86.9052,-92.0014 76.7376,-79.5493 69.2338,-68.3214"/>
<polygon fill="green" stroke="green" stroke-width="0.25" points="72.0893,-66.2875 63.8011,-59.6878 66.1647,-70.0156 72.0893,-66.2875"/>
<text text-anchor="middle" x="214.5" y="-133.5" font-family="Arial" font-size="10.00">ref</text>
</g>
<!-- _Person_0&#45;&gt;__wikiPageID_0 -->
<g id="edge12" class="edge"><title>_Person_0&#45;&gt;__wikiPageID_0</title>
<path fill="none" stroke="lightgray" stroke-width="1.25" d="M295.844,-119.152C291.742,-113.438 287.613,-106.731 285,-100 281.401,-90.7273 279.391,-80.048 278.279,-70.4578"/>
<polygon fill="lightgray" stroke="lightgray" stroke-width="1.25" points="281.741,-69.8761 277.368,-60.226 274.768,-70.4971 281.741,-69.8761"/>
<text text-anchor="middle" x="315" y="-92" font-family="Arial" font-size="10.00">dbp</text>
<text text-anchor="middle" x="315" y="-81" font-family="Arial" font-size="10.00">m:wikiPageID</text>
</g>
<!-- _Person_0&#45;&gt;__name_0 -->
<g id="edge8" class="edge"><title>_Person_0&#45;&gt;__name_0</title>
<path fill="none" stroke="lightgray" stroke-width="1.25" d="M339.061,-128.743C356.03,-125.324 377.65,-121.156 397,-118 456.741,-108.255 477.617,-126.581 532,-100 547.665,-92.3434 561.714,-78.8086 572.061,-66.849"/>
<polygon fill="lightgray" stroke="lightgray" stroke-width="1.25" points="574.944,-68.8542 578.606,-58.9126 569.543,-64.4001 574.944,-68.8542"/>
<text text-anchor="middle" x="582.5" y="-86.5" font-family="Arial" font-size="10.00">foaf:name</text>
</g>
<!-- _Person_0&#45;&gt;__comment_0 -->
<g id="edge10" class="edge"><title>_Person_0&#45;&gt;__comment_0</title>
<path fill="none" stroke="lightgray" stroke-width="1.25" d="M325.466,-120.313C331.854,-114.284 339.049,-107.068 345,-100 353.362,-90.0678 361.627,-78.34 368.382,-68.1126"/>
<polygon fill="lightgray" stroke="lightgray" stroke-width="1.25" points="371.4,-69.8911 373.894,-59.5939 365.523,-66.0886 371.4,-69.8911"/>
<text text-anchor="middle" x="392" y="-86.5" font-family="Arial" font-size="10.00">rdfs:comment</text>
</g>
<!-- _Person_0&#45;&gt;__description_0 -->
<g id="edge13" class="edge"><title>_Person_0&#45;&gt;__description_0</title>
<path fill="none" stroke="lightgray" stroke-width="1.25" d="M339.677,-129.462C364.103,-124.213 398.616,-114.882 426,-100 430.699,-97.4463 450.316,-80.6211 467.118,-65.9072"/>
<polygon fill="lightgray" stroke="lightgray" stroke-width="1.25" points="469.862,-68.1557 475.063,-58.9254 465.241,-62.8976 469.862,-68.1557"/>
<text text-anchor="middle" x="490" y="-86.5" font-family="Arial" font-size="10.00">terms:description</text>
</g>
<!-- _Person_0&#45;&gt;__abstract_0 -->
<g id="edge9" class="edge"><title>_Person_0&#45;&gt;__abstract_0</title>
<path fill="none" stroke="lightgray" stroke-width="1.25" d="M283.429,-124.713C276.555,-122.234 269.066,-119.789 262,-118 209.72,-104.763 192.388,-119.222 142,-100 119.875,-91.5596 97.5874,-76.8088 81.1098,-64.4278"/>
<polygon fill="lightgray" stroke="lightgray" stroke-width="1.25" points="83.1105,-61.5508 73.0544,-58.2153 78.8356,-67.0939 83.1105,-61.5508"/>
<text text-anchor="middle" x="175" y="-86.5" font-family="Arial" font-size="10.00">dbp m:abstract</text>
</g>
<!-- dbp_m_Person_0 -->
<g id="node8" class="node"><title>dbp_m_Person_0</title>
<ellipse fill="none" stroke="gray" cx="163" cy="-42" rx="50.7503" ry="18"/>
<text text-anchor="middle" x="163" y="-39.5" font-family="Verdana" font-size="10.00">dbp_m:Person</text>
</g>
<!-- _Person_0&#45;&gt;dbp_m_Person_0 -->
<g id="edge7" class="edge"><title>_Person_0&#45;&gt;dbp_m_Person_0</title>
<path fill="none" stroke="lightgray" stroke-width="1.25" d="M285.367,-123.421C272.595,-116.928 256.683,-108.452 243,-100 225.414,-89.1369 206.546,-75.7823 191.553,-64.7308"/>
<polygon fill="lightgray" stroke="lightgray" stroke-width="1.25" points="193.325,-61.6866 183.212,-58.5263 189.147,-67.3031 193.325,-61.6866"/>
<text text-anchor="middle" x="259.5" y="-86.5" font-family="Arial" font-size="10.00">rdf:type</text>
</g>
<!-- FILTER_0_9 -->
<g id="node9" class="node"><title>FILTER_0_9</title>
<polygon fill="#f2f2f2" stroke="gray" points="417.232,-129 448.768,-129 460,-143 406,-143 417.232,-129"/>
<text text-anchor="middle" x="433" y="-134.1" font-family="Verdana" font-size="8.00">FILTER</text>
</g>
<!-- FILTER_0_9&#45;&gt;__comment_0 -->
<g id="edge11" class="edge"><title>FILTER_0_9&#45;&gt;__comment_0</title>
<path fill="none" stroke="lightgray" stroke-width="1.25" d="M433.956,-128.903C435.362,-117.97 436.935,-94.6252 428,-78 425.099,-72.6022 420.974,-67.7469 416.401,-63.4927"/>
<polygon fill="lightgray" stroke="lightgray" stroke-width="1.25" points="418.36,-60.5716 408.418,-56.911 413.907,-65.9728 418.36,-60.5716"/>
</g>
<!-- FILTER_0_12 -->
<g id="node10" class="node"><title>FILTER_0_12</title>
<polygon fill="#f2f2f2" stroke="gray" points="497.232,-129 528.768,-129 540,-143 486,-143 497.232,-129"/>
<text text-anchor="middle" x="513" y="-134.1" font-family="Verdana" font-size="8.00">FILTER</text>
</g>
<!-- FILTER_0_12&#45;&gt;__description_0 -->
<g id="edge14" class="edge"><title>FILTER_0_12&#45;&gt;__description_0</title>
<path fill="none" stroke="lightgray" stroke-width="1.25" d="M518.415,-128.882C527.085,-118.305 542.303,-96.0044 534,-78 531.755,-73.1318 528.462,-68.6899 524.702,-64.7271"/>
<polygon fill="lightgray" stroke="lightgray" stroke-width="1.25" points="526.786,-61.8894 517.05,-57.7112 522.056,-67.049 526.786,-61.8894"/>
</g>
<!-- FILTER_0_15 -->
<g id="node11" class="node"><title>FILTER_0_15</title>
<polygon fill="#f2f2f2" stroke="gray" points="27.2315,-129 58.7685,-129 70,-143 16,-143 27.2315,-129"/>
<text text-anchor="middle" x="43" y="-134.1" font-family="Verdana" font-size="8.00">FILTER</text>
</g>
<!-- FILTER_0_15&#45;&gt;__abstract_0 -->
<g id="edge15" class="edge"><title>FILTER_0_15&#45;&gt;__abstract_0</title>
<path fill="none" stroke="lightgray" stroke-width="1.25" d="M43.7874,-128.964C45.3148,-117.253 48.7648,-90.8029 51.4375,-70.3126"/>
<polygon fill="lightgray" stroke="lightgray" stroke-width="1.25" points="54.9271,-70.6192 52.7499,-60.2505 47.9859,-69.7138 54.9271,-70.6192"/>
</g>
</g>
</svg>
