<?xml version="1.0" standalone="yes"?>

<svg version="1.1" viewBox="0.0 0.0 320.0 160.0" fill="none" stroke="none" stroke-linecap="square" stroke-miterlimit="10" xmlns="http://www.w3.org/2000/svg" xmlns:xlink="http://www.w3.org/1999/xlink"><clipPath id="p.0"><path d="m0 0l320.0 0l0 160.0l-320.0 0l0 -160.0z" clip-rule="nonzero"></path></clipPath><g clip-path="url(#p.0)"><path fill="#000000" fill-opacity="0.0" d="m0 0l320.0 0l0 160.0l-320.0 0z" fill-rule="nonzero"></path><path fill="#000000" fill-opacity="0.0" d="m92.47769 57.87664l89.32283 -14.897636" fill-rule="nonzero"></path><path stroke="#6aa84f" stroke-width="2.0" stroke-linejoin="round" stroke-linecap="butt" d="m92.47769 57.87664l77.48633 -12.923496" fill-rule="evenodd"></path><path fill="#6aa84f" stroke="#6aa84f" stroke-width="2.0" stroke-linecap="butt" d="m170.50748 48.2116l8.409073 -4.7515984l-9.495987 -1.765316z" fill-rule="evenodd"></path><path fill="#000000" fill-opacity="0.0" d="m1.6351706 52.883995l336.37796 -47.937004l13.669281 95.55906l-336.37793 47.937004z" fill-rule="nonzero"></path><path fill="#4a86e8" d="m78.468254 60.692753q-1.1999207 0.21834946 -2.8461456 0.958004q-1.6484375 0.72418594 -2.6626205 1.5789452q-1.4384155 1.1993065 -2.1784363 2.8672676q-0.7245407 1.6657639 -1.3539734 3.8861465q-2.0538177 7.8211136 -6.037548 24.329529q-3.9859467 16.49295 -8.152863 34.36901l-3.8517075 0.5489044q-9.25127 -17.005516 -17.852627 -32.777885q-8.601353 -15.772377 -11.665197 -21.301674q-0.7626419 -1.3591232 -1.845644 -2.3095856q-1.0852146 -0.9659271 -2.7560081 -1.7221451q-1.3658066 -0.6102829 -2.9525232 -0.7787323q-1.5889292 -0.18392181 -2.901577 -0.091552734l-0.47127628 -3.2945862l27.240404 -3.8820152l0.47127533 3.29459q-3.453907 0.6816101 -5.7785454 1.5337219q-2.309166 0.84991455 -2.123312 2.1491928q0.07301521 0.5104294 0.3582058 1.1800156q0.28518867 0.6695862 0.48414612 1.0673676q2.3675232 4.3027725 7.690586 14.039787q5.3208504 9.72155 15.135807 27.688408q2.298893 -9.087105 5.220402 -21.435295q2.9215126 -12.34819 3.8753777 -16.93489q0.927372 -4.44088 0.9425545 -6.1002502q0.030647278 -1.6615677 -0.11537933 -2.6824265q-0.15267181 -1.0672607 -1.2135086 -1.6420898q-1.0475807 -0.5925064 -2.6984062 -0.8780823q-1.5977783 -0.24578857 -3.2087746 -0.25295258q-1.6109962 -0.007156372 -3.255127 0.08509827l-0.47127533 -3.2945862l24.502441 -3.491829l0.47127533 3.29459zm32.568336 59.18462l-22.135735 3.1545486l-0.43808746 -3.0625763q1.0540695 -0.2449112 2.1700134 -0.49864197q1.1314087 -0.25593567 1.9268875 -0.653389q1.2396393 -0.60279846 1.710144 -1.7273026q0.48376465 -1.1421738 0.24480438 -2.8126678l-4.042351 -28.259224q-0.21240997 -1.4848862 -1.0678253 -2.6098251q-0.8421631 -1.1426163 -2.1681976 -1.8059158q-0.9613724 -0.43118286 -2.6873016 -0.5797882q-1.7281494 -0.16407776 -3.1336136 -0.05848694l-0.4314499 -3.0161743l16.003311 -3.3222885l0.74261475 0.5570526l5.3367004 37.30774q0.2323227 1.6240921 1.0037384 2.60318q0.7868805 0.9768753 2.2056732 1.2955246q1.0806732 0.27212524 2.0928192 0.39619446q1.0099258 0.10860443 2.2297668 0.029464722l0.43808746 3.0625763zm-15.053658 -63.52722q0.3783493 2.6449509 -1.0864029 4.8739014q-1.4514999 2.211277 -4.0038376 2.5750084q-2.3667145 0.33727646 -4.3824005 -1.2851944q-2.0024261 -1.6401443 -2.3475876 -4.0530853q-0.36507416 -2.552143 1.0952759 -4.7015495q1.4758224 -2.1516113 3.842537 -2.4888916q2.6451492 -0.37695694 4.5878906 1.1769943q1.9560089 1.5362816 2.2945251 3.9028168zm71.205086 55.525116l-22.41417 3.1942291l-0.43807983 -3.0625763q1.0540619 -0.2449112 2.3092194 -0.5184784q1.2706299 -0.27577972 2.0661163 -0.67323303q1.239624 -0.60279846 1.7101288 -1.7273026q0.48376465 -1.1421738 0.24481201 -2.8126678l-3.3653107 -23.526154q-0.69696045 -4.8722763 -3.3801422 -7.1887665q-2.6677246 -2.318695 -5.962555 -1.8491516q-2.4595184 0.350502 -4.3907623 1.4148636q-1.9334564 1.0488968 -3.3519592 2.387413q-1.3787384 1.2855072 -2.1143951 2.6529694q-0.7223892 1.3497925 -1.0338364 2.1517563l3.7635727 26.31031q0.22567749 1.5776901 1.0213928 2.5059662q0.79571533 0.92826843 2.1747437 1.2999268q1.0409088 0.32514954 2.203308 0.39624023q1.1778717 0.0688858 2.397705 -0.010253906l0.4380951 3.0625763l-22.41417 3.1942215l-0.43808746 -3.0625687q1.0540619 -0.2449112 2.1700058 -0.49864197q1.1314087 -0.25593567 1.9268951 -0.653389q1.2396317 -0.60279846 1.7101364 -1.7273026q0.48376465 -1.1421738 0.24480438 -2.8126755l-4.042351 -28.259216q-0.22568512 -1.5776901 -1.0943756 -2.7954407q-0.8554306 -1.2354202 -2.1814728 -1.8987198q-0.9613724 -0.43118286 -2.203331 -0.50671387q-1.2441711 -0.09100342 -2.6496277 0.014587402l-0.4314499 -3.0161667l15.07518 -3.1900253l0.74261475 0.5570526l0.92263794 6.4499664l0.23203278 -0.033065796q0.9544449 -1.2723846 2.4038086 -3.0572205q1.4471436 -1.8003006 2.7927551 -2.9863815q1.557724 -1.3583603 3.8182373 -2.4380798q2.260498 -1.0797195 5.2304993 -1.5029678q6.589676 -0.93909454 10.349304 2.7233658q3.772873 3.6447906 4.7486267 10.465981l3.4051208 23.804565q0.23233032 1.6240921 0.9330139 2.5501251q0.6984863 0.91056824 2.1239166 1.2756119q1.1801147 0.30530548 2.0110474 0.37628937q0.8463898 0.06877136 2.2982483 -0.043434143l0.4380951 3.0625763zm44.15129 -11.121529q2.1084747 1.498764 3.4944153 3.5739899q1.3859558 2.0752182 1.8572388 5.369812q0.4712677 3.2945862 -0.5535736 6.3920364q-1.0226288 3.1129074 -3.6408844 5.66407q-2.7972412 2.6240158 -6.9404297 4.445526q-4.1431885 1.8215027 -10.500824 2.7275238q-10.394974 1.4813843 -15.981934 -0.8316498q-5.5847473 -2.2975616 -6.421097 -8.144295q-0.6770477 -4.7330704 2.6438293 -7.999893q3.3208618 -3.2668228 9.042038 -4.318886l-0.092926025 -0.6496353q-1.4519348 -0.21922302 -3.0254211 -0.6263046q-1.5757141 -0.42253876 -2.7625427 -1.1056824q-1.3459473 -0.8025131 -2.2765045 -2.011444q-0.93278503 -1.2243958 -1.2115631 -3.1733017q-0.35180664 -2.459343 1.0864258 -4.7634277q1.451477 -2.3217545 4.76593 -4.30925l-0.0995636 -0.6960373q-4.7536774 -1.4532471 -7.6800537 -4.366394q-2.9285889 -2.9286118 -3.5458984 -7.2440643q-0.9292755 -6.4963684 3.315033 -11.362602q4.259796 -4.868431 11.82399 -5.9463997q2.088272 -0.2975998 4.205353 -0.17316437q2.132553 0.122226715 4.360153 0.46765518l15.963715 -2.2749786l0.6372223 4.4546547l-10.76622 1.5342903l0.03982544 0.27841187q2.0024414 1.7506256 3.1829224 4.044525q1.1804657 2.2938995 1.5123444 4.614029q0.8628998 6.0323486 -3.443283 10.907394q-4.2907257 4.872841 -10.787582 5.798706l-5.615143 0.80020905q-1.0142365 0.52332306 -2.0350037 1.6631165q-1.0207672 1.1397858 -0.7817993 2.8102798q0.24559021 1.7169037 1.3506622 2.4906082q1.1028595 0.75823975 2.541504 0.8846588q1.39888 0.17943573 3.1910553 0.018730164q1.8076477 -0.16291046 3.7169342 -0.38764954q2.0485077 -0.24458313 5.6240387 -0.5173874q3.5909882 -0.27500916 5.0826263 -0.44023132q2.1479492 -0.21141052 4.4308624 0.41023254q2.2983704 0.61943054 4.2941284 1.992218zm-16.41272 -25.35997q-0.7766113 -5.4291077 -3.4488373 -8.331123q-2.6589966 -2.919693 -6.6499176 -2.3509445q-2.1810913 0.31082153 -3.6128845 1.4460602q-1.4185486 1.1175613 -2.1541138 2.9269333q-0.7090759 1.663559 -0.8015137 3.8863297q-0.0791626 2.205101 0.24607849 4.4788284q0.7367859 5.150696 3.4443817 8.079239q2.7230682 2.9263382 6.296341 2.4171143q3.9909363 -0.56874084 5.6808777 -4.092407q1.703186 -3.5413437 0.999588 -8.46003zm14.399353 37.105255q-0.3717041 -2.5985565 -1.8172302 -4.0970993q-1.4455109 -1.4985504 -3.991333 -1.7512817q-1.3259125 -4.4250488E-4 -5.3964386 0.34290314q-4.070526 0.34334564 -9.407227 1.1038742q-4.872467 1.6886978 -6.6642303 4.2798996q-1.7740784 2.6044693 -1.2563324 6.223877q0.23231506 1.6240997 1.1408234 3.009781q0.90849304 1.3856888 2.8047333 2.3938675q1.7967987 0.9750061 4.643173 1.3427277q2.8486023 0.38319397 6.7931213 -0.17893982q6.821701 -0.9721527 10.359146 -4.159363q3.55513 -3.1739426 2.7917938 -8.510246zm50.990646 -24.880325q-2.093933 5.885536 -6.4555206 9.82151q-4.361603 3.9359665 -10.626434 4.828766q-5.5223236 0.7869797 -9.962204 -0.5689316q-4.4243927 -1.3581238 -7.593857 -4.315544q-3.1694794 -2.9574203 -5.1370087 -7.222496q-1.9520569 -4.2672806 -2.6622925 -9.232361q-0.63720703 -4.4546585 0.15756226 -8.939774q0.8080292 -4.5027924 3.0547943 -8.326775q2.173874 -3.671547 5.799835 -6.2400513q3.639206 -2.5861778 8.511841 -3.2805748q5.0118713 -0.7142372 8.810822 0.35422897q3.7989502 1.0684662 6.4180756 3.4887848q2.5063934 2.2943382 4.0472565 5.6732407q1.5563507 3.3767014 2.14711 7.5065384l0.43807983 3.0625763l-30.303207 4.318489q0.6438446 4.5010605 2.0190125 8.045631q1.390625 3.5423584 3.6451263 6.061989q2.1948242 2.4334335 5.3418884 3.5790176q3.1448364 1.1301193 7.1821747 0.55475616q4.130142 -0.5885849 6.8412476 -2.9320145q2.7243652 -2.3611069 4.791855 -7.769394l3.533844 1.5323868zm-12.751526 -15.985863q-0.3717041 -2.598549 -1.2451172 -5.5043945q-0.8579254 -2.908043 -2.1178741 -4.764477q-1.3726807 -1.9824181 -3.4214172 -3.0635605q-2.0487366 -1.0811462 -4.9723206 -0.6645088q-4.87265 0.694397 -7.523712 5.223091q-2.6378021 4.5110245 -1.8807526 11.78952l21.161194 -3.0156708z" fill-rule="nonzero"></path><path fill="#000000" fill-opacity="0.0" d="m230.98267 25.919846l76.09448 0.22047234l-0.09448242 22.425196l-76.09448 -0.22047043z" fill-rule="nonzero"></path><path fill="#6aa84f" d="m247.02422 45.75722l-1.015625 -0.0029449463l-5.342102 -15.234291l1.03125 0.002986908l5.326477 15.234249z" fill-rule="nonzero"></path><path fill="#6aa84f" d="m250.51147 33.954773l-0.796875 -0.0023078918l0.010925293 -2.593729l0.796875 0.0023078918l-0.010925293 2.593729z" fill-rule="nonzero"></path><path fill="#6aa84f" d="m260.9436 35.25063q-0.34402466 0.061504364 -0.67300415 0.2636757q-0.31329346 0.1865921 -0.5340576 0.67033005q-0.47317505 1.0455093 -0.9779663 2.1846771q-0.48913574 1.1235886 -1.0256348 2.3720398q-0.15777588 0.35891724 -0.3317566 0.8584137q-0.17391968 0.48387527 -0.3321228 0.9521675l-0.609375 -0.0017662048q-0.7266083 -1.8458595 -1.3452148 -3.363285q-0.6186218 -1.5174217 -1.283844 -3.0974808q-0.15472412 -0.35982513 -0.5132446 -0.56399155q-0.3428955 -0.20412064 -0.70207214 -0.25203323l0.002166748 -0.5156212l3.5781097 0.0103645325l-0.0022888184 0.5468712q-0.23439026 -6.790161E-4 -0.5941467 0.09202957q-0.34414673 0.092754364 -0.34480286 0.24900055q-7.6293945E-5 0.015625 0.030715942 0.12509155q0.04647827 0.093883514 0.07720947 0.21897507q0.32476807 0.79781723 0.89682007 2.2369804q0.58776855 1.423584 0.9434509 2.2996178q0.28408813 -0.67105484 0.71017456 -1.6698227q0.44171143 -0.9987259 0.9312744 -2.2316856q0.07904053 -0.21852112 0.14227295 -0.39021683q0.07891846 -0.18727112 0.079711914 -0.3747673q5.79834E-4 -0.140625 -0.12402344 -0.2347374q-0.12454224 -0.109737396 -0.31170654 -0.18840408q-0.1715393 -0.07862091 -0.34329224 -0.110370636q-0.17166138 -0.04737091 -0.28097534 -0.06331253l0.002105713 -0.4999962l2.9375 0.00851059l-0.0019836426 0.4687462zm4.05542 7.246155l-3.7343445 -0.010818481l0.002166748 -0.5156212q0.18756104 -0.015083313 0.37512207 -0.030162811q0.18759155 -0.015083313 0.32839966 -0.06155014q0.2190857 -0.07749176 0.3291626 -0.24904633q0.11010742 -0.17155838 0.11129761 -0.45280457l0.020080566 -4.765587q0.0010681152 -0.25 -0.12307739 -0.45348358q-0.10852051 -0.20344162 -0.31106567 -0.34465408q-0.14022827 -0.09415436 -0.4212036 -0.1574707q-0.2809143 -0.07893753 -0.5152283 -0.09524155l0.002105713 -0.4999962l2.719452 -0.16399765l0.10891724 0.10969162l-0.02645874 6.2812004q-0.0011291504 0.2656212 0.09182739 0.45339203q0.10864258 0.17219162 0.34262085 0.26662064q0.17163086 0.06299591 0.32766724 0.11032486q0.1716919 0.04737091 0.37475586 0.063583374l-0.0021972656 0.5156212zm-0.93865967 -10.846514q-0.0019226074 0.45311928 -0.3001709 0.78038216q-0.2982483 0.32726288 -0.7201233 0.32604218q-0.40625 -0.0011787415 -0.70181274 -0.31453705q-0.27993774 -0.31331253 -0.27822876 -0.7195587q0.0018615723 -0.4374962 0.28442383 -0.74917793q0.2982483 -0.32726288 0.7044983 -0.32608604q0.4375 0.0012683868 0.71743774 0.31458092q0.29562378 0.2977314 0.29397583 0.6883545zm10.391754 10.873903l-3.7812195 -0.010955811l0.002166748 -0.5156212q0.18756104 -0.015079498 0.39074707 -0.030117035q0.21881104 -0.01499176 0.35964966 -0.061458588q0.21905518 -0.07749176 0.3291626 -0.24904633q0.11010742 -0.17155838 0.11129761 -0.45280457l0.016723633 -3.9687195q0.0034179688 -0.8124924 -0.38537598 -1.2511215q-0.3887024 -0.45425415 -0.9355774 -0.45583725q-0.421875 -0.0012207031 -0.7661438 0.122779846q-0.3442688 0.124004364 -0.61068726 0.3107338q-0.25079346 0.1867714 -0.40789795 0.38944244q-0.15710449 0.20267105 -0.22012329 0.32748795l-0.018707275 4.4374657q-0.0011291504 0.265625 0.107543945 0.4378128q0.10864258 0.17219162 0.32699585 0.26657486q0.1559143 0.078575134 0.3432312 0.12599564q0.20297241 0.031837463 0.40603638 0.048049927l-0.002166748 0.5156212l-3.78125 -0.010955811l0.0021972656 -0.5156212q0.18756104 -0.015079498 0.37512207 -0.030162811q0.18756104 -0.015079498 0.32836914 -0.061546326q0.2190857 -0.07749176 0.32919312 -0.24905014q0.11010742 -0.17155457 0.11126709 -0.45280457l0.020080566 -4.765587q0.0011291504 -0.2656212 -0.12295532 -0.48473358q-0.10845947 -0.2190628 -0.31097412 -0.36027527q-0.14022827 -0.09415817 -0.34317017 -0.14162064q-0.20291138 -0.047462463 -0.43722534 -0.06376648l0.002105713 -0.4999962l2.563202 -0.16444778l0.10891724 0.109687805l-0.004547119 1.0781174l0.03125 9.1552734E-5q0.18829346 -0.1869545 0.47061157 -0.43613815q0.28234863 -0.26480865 0.53308105 -0.43595886q0.29766846 -0.18663788 0.68881226 -0.3105049q0.4067688 -0.12382126 0.9067688 -0.12237167q1.109375 0.003211975 1.6376648 0.7078705q0.52835083 0.6890335 0.5235596 1.8296509l-0.016937256 4.0155907q-0.0011291504 0.265625 0.091918945 0.43777084q0.09301758 0.17214584 0.32699585 0.26657104q0.1871643 0.0786705 0.31204224 0.1102829q0.14050293 0.031654358 0.39041138 0.04800415l-0.002166748 0.5156212zm3.7519531 -0.45788193q-0.0036010742 0.8593674 -0.2567749 1.6086388q-0.25320435 0.7648926 -0.677124 1.2480431q-0.4397583 0.5299797 -1.0033569 0.793972q-0.5636902 0.2796173 -1.2355652 0.2776718q-0.703125 -0.0020370483 -1.0456848 -0.28428268q-0.35824585 -0.2666626 -0.35665894 -0.6416588q0.0014343262 -0.34375 0.19000244 -0.5932045q0.1885376 -0.2494545 0.5479126 -0.24841309q0.25 7.247925E-4 0.43710327 0.09501648q0.18704224 0.10991669 0.32699585 0.26657486q0.124420166 0.1409874 0.24856567 0.34447098q0.13970947 0.21915436 0.24829102 0.40697098q0.59375 0.0017204285 0.84677124 -0.71630096q0.26864624 -0.7179718 0.2753601 -2.3117104l0.024414062 -5.796829q0.0010681152 -0.24999619 -0.12301636 -0.46910858q-0.12402344 -0.23473358 -0.3109131 -0.37590027q-0.12460327 -0.094112396 -0.6086426 -0.1736412q-0.46835327 -0.09510803 -0.70266724 -0.11141205l0.0020446777 -0.4843712l3.094452 -0.16290665l0.10891724 0.109687805l-0.030426025 7.218693zm0.15310669 -10.374599q-0.0018615723 0.4374962 -0.3001709 0.78038406q-0.2826233 0.32730865 -0.7201233 0.32603836q-0.390625 -0.0011291504 -0.68618774 -0.31448746q-0.2955017 -0.3289833 -0.29379272 -0.7352295q0.0018005371 -0.4218712 0.2999878 -0.73350906q0.2982483 -0.32726288 0.6888733 -0.3261299q0.453125 0.0013122559 0.7331238 0.2989998q0.27999878 0.29768753 0.2782898 0.7039337zm5.4542847 10.8596l-3.734375 -0.010822296l0.0021972656 -0.5156212q0.18756104 -0.015079498 0.37512207 -0.030162811q0.18756104 -0.015079498 0.32836914 -0.061546326q0.2190857 -0.07749176 0.32919312 -0.24905014q0.11010742 -0.17155457 0.11126709 -0.45280457l0.020080566 -4.765587q0.0010681152 -0.24999619 -0.12307739 -0.45348358q-0.10852051 -0.2034378 -0.31106567 -0.34465027q-0.14022827 -0.09415817 -0.4212036 -0.1574707q-0.2809143 -0.078941345 -0.5152283 -0.09524536l0.002105713 -0.4999962l2.7194824 -0.16399384l0.10888672 0.109687805l-0.02645874 6.2812004q-0.0011291504 0.265625 0.09185791 0.45339584q0.10864258 0.1721878 0.34262085 0.26661682q0.17160034 0.06299591 0.32766724 0.11032486q0.17166138 0.04737091 0.37472534 0.06358719l-0.002166748 0.5156212zm-0.9386902 -10.846516q-0.0018920898 0.4531212 -0.3001709 0.78038406q-0.2982483 0.32725906 -0.7201233 0.32603836q-0.40625 -0.0011749268 -0.70181274 -0.31453323q-0.27990723 -0.31331253 -0.27819824 -0.7195606q0.0018310547 -0.4374962 0.2843933 -0.74917793q0.2982483 -0.32726288 0.7044983 -0.32608604q0.4375 0.0012683868 0.71743774 0.314579q0.29562378 0.2977333 0.29397583 0.6883564zm12.284058 14.191898l-1.015625 -0.0029411316l-5.342102 -15.234291l1.03125 0.002986908l5.326477 15.234245z" fill-rule="nonzero"></path><path fill="#000000" d="m109.04462 54.061577l0 0c0 -3.0353928 2.4606705 -5.496063 5.496063 -5.496063l0 0c1.4576492 0 2.8555908 0.57904816 3.8863068 1.6097603c1.0307083 1.0307121 1.6097565 2.4286575 1.6097565 3.886303l0 0c0 3.0353928 -2.4606705 5.496063 -5.496063 5.496063l0 0c-3.0353928 0 -5.496063 -2.4606705 -5.496063 -5.496063z" fill-rule="nonzero"></path><path stroke="#000000" stroke-width="2.0" stroke-linejoin="round" stroke-linecap="butt" d="m109.04462 54.061577l0 0c0 -3.0353928 2.4606705 -5.496063 5.496063 -5.496063l0 0c1.4576492 0 2.8555908 0.57904816 3.8863068 1.6097603c1.0307083 1.0307121 1.6097565 2.4286575 1.6097565 3.886303l0 0c0 3.0353928 -2.4606705 5.496063 -5.496063 5.496063l0 0c-3.0353928 0 -5.496063 -2.4606705 -5.496063 -5.496063z" fill-rule="nonzero"></path><path fill="#ffffff" d="m131.64305 50.427822l0 0c0 -3.1310654 2.4606628 -5.6692924 5.496063 -5.6692924l0 0c1.4576416 0 2.8555908 0.59729767 3.8862915 1.6604996c1.030716 1.0631981 1.6097717 2.5052032 1.6097717 4.008793l0 0c0 3.1310616 -2.460678 5.6692924 -5.496063 5.6692924l0 0c-3.0354004 0 -5.496063 -2.538231 -5.496063 -5.6692924z" fill-rule="nonzero"></path><path stroke="#4a86e8" stroke-width="1.0" stroke-linejoin="round" stroke-linecap="butt" d="m131.64305 50.427822l0 0c0 -3.1310654 2.4606628 -5.6692924 5.496063 -5.6692924l0 0c1.4576416 0 2.8555908 0.59729767 3.8862915 1.6604996c1.030716 1.0631981 1.6097717 2.5052032 1.6097717 4.008793l0 0c0 3.1310616 -2.460678 5.6692924 -5.496063 5.6692924l0 0c-3.0354004 0 -5.496063 -2.538231 -5.496063 -5.6692924z" fill-rule="nonzero"></path><path fill="#000000" fill-opacity="0.0" d="m241.43217 104.44209l64.157486 -0.15747833l0.12597656 36.88189l-64.157486 0.15748596z" fill-rule="nonzero"></path></g></svg>

